:SAMPLES-PER-SECOND 30
:FULLY-SPECIFIED
:DEGREES
182
root  1.87794 18.8171 -43.6185 53.1618 1.6957 -5.68511
RightUpLeg  -61.9725 -1.01771 12.4454
RightLeg  119.585 18.5945 -4.98316
RightFoot  -20.6637 0.233581 2.56245
RightToes  5.82077e-011 -3.18055e-015 -2.98177e-016
Spine  40.4063 -3.14915 12.1574
Spine1  -13.1487 1.50777 -6.61923
HEad  -20.7226 -7.49475 -6.8577
LeftShoulder1  -3.88251e-019 9.70628e-020 -3.87848e-018
LeftArm  -7.24647 -8.57247 -78.9044
LeftForeArm  15.8318 -11.107 -5.40787
LeftHand  -13.6557 -11.6405 79.9463
RightShoulder  2.76797 6.53553 15.1481
RightArm  2.36394 32.3246 56.017
RightForeArm  10.6453 25.1583 -13.9555
RightHand  -4.59356 7.2987 -40.1079
LeftUpLeg  -28.5092 0.362505 1.48927
LeftLeg  81.1236 -12.0836 17.4286
LeftFoot  -3.74966 1.05031 -13.0288
LeftToes  9.37148e-011 4.50685e-012 -4.11107e-011
183
root  1.35679 19.1255 -43.0331 52.525 3.28227 -2.82595
RightUpLeg  -58.2166 -2.84647 11.6808
RightLeg  117.456 17.2267 -2.94218
RightFoot  -22.4205 0.295951 2.78759
RightToes  5.82077e-011 -3.18055e-015 -2.98177e-016
Spine  42.311 -4.36798 11.3156
Spine1  -13.5092 0.154974 -7.05214
HEad  -21.3967 -8.86286 -5.44711
LeftShoulder1  -3.88251e-019 9.70628e-020 -3.87848e-018
LeftArm  -6.50504 -8.99958 -78.6638
LeftForeArm  17.9274 -11.2551 -5.55747
LeftHand  -13.8142 -11.7683 80.1689
RightShoulder  2.5049 6.16674 13.8758
RightArm  0.442953 33.5102 57.2941
RightForeArm  8.74945 21.7471 -12.269
RightHand  -3.97878 6.31571 -37.7295
LeftUpLeg  -31.5936 -2.33282 1.80699
LeftLeg  84.6122 -13.1179 18.069
LeftFoot  -4.92269 0.859772 -11.9957
LeftToes  9.37148e-011 4.50685e-012 -4.11107e-011
184
root  0.857836 19.4405 -42.4083 51.4824 3.84768 0.332937
RightUpLeg  -54.3229 -4.52672 10.1509
RightLeg  115.296 16.53 -1.79342
RightFoot  -23.6776 0.275938 2.17455
RightToes  5.82077e-011 -3.18055e-015 -2.98177e-016
Spine  44.9505 -5.19047 9.68003
Spine1  -13.7706 -1.02371 -7.74623
HEad  -22.047 -10.5403 -4.06753
LeftShoulder1  -3.88251e-019 9.70628e-020 -3.87848e-018
LeftArm  -5.6174 -9.95891 -78.7906
LeftForeArm  19.9633 -11.2061 -5.8965
LeftHand  -14.0025 -11.9391 80.3626
RightShoulder  2.33207 5.92045 13.0088
RightArm  0.182984 34.4722 57.6685
RightForeArm  7.71274 17.7237 -11.1232
RightHand  -3.18313 5.13317 -33.9526
LeftUpLeg  -34.1874 -4.47912 0.474853
LeftLeg  88.6614 -14.509 19.886
LeftFoot  -9.37472 0.238726 -7.94196
LeftToes  9.37148e-011 4.50685e-012 -4.11107e-011
185
root  0.274202 19.6673 -41.7583 50.6753 2.60526 3.99362
RightUpLeg  -51.1536 -5.60772 7.32948
RightLeg  113.449 16.3891 -1.59905
RightFoot  -24.5938 0.233499 1.53118
RightToes  5.82077e-011 -3.18055e-015 -2.98177e-016
Spine  47.3839 -4.42354 5.74576
Spine1  -13.4904 -1.67771 -7.65679
HEad  -22.8846 -12.4616 -2.61847
LeftShoulder1  -3.88251e-019 9.70628e-020 -3.87848e-018
LeftArm  -4.90513 -11.2777 -79.5081
LeftForeArm  21.979 -10.7559 -6.28786
LeftHand  -14.3655 -12.1683 81.0578
RightShoulder  2.33114 5.9688 12.9177
RightArm  2.12829 35.3328 57.5118
RightForeArm  6.54975 13.0694 -10.1929
RightHand  -3.14588 4.50601 -35.409
LeftUpLeg  -37.185 -5.6182 -2.90932
LeftLeg  93.6502 -16.4662 21.3233
LeftFoot  -13.9477 -0.0782581 -4.6215
LeftToes  9.37148e-011 4.50685e-012 -4.11107e-011
186
root  -0.333572 19.7986 -41.09 49.8143 0.736702 7.23232
RightUpLeg  -48.3538 -6.15688 4.68053
RightLeg  111.608 16.6973 -2.41876
RightFoot  -24.9543 0.230538 1.44508
RightToes  5.82077e-011 -3.18055e-015 -2.98177e-016
Spine  49.3336 -2.96698 1.38426
Spine1  -12.598 -2.01301 -7.48368
HEad  -23.9121 -13.9099 -1.21183
LeftShoulder1  -3.88251e-019 9.70628e-020 -3.87848e-018
LeftArm  -4.25616 -12.2738 -79.8454
LeftForeArm  23.7265 -10.5832 -6.61414
LeftHand  -14.7638 -12.4051 81.8441
RightShoulder  2.37851 6.12631 13.0076
RightArm  2.91095 35.0431 57.4033
RightForeArm  4.82781 10.1557 -9.47942
RightHand  -4.17549 4.62118 -45.2519
LeftUpLeg  -40.5135 -6.04563 -6.59726
LeftLeg  99.6807 -18.6569 21.1071
LeftFoot  -18.8647 -0.258279 -3.95325
LeftToes  9.37148e-011 4.50685e-012 -4.11107e-011
187
root  -0.83649 19.8478 -40.3996 48.6428 -0.728618 9.46036
RightUpLeg  -45.2714 -6.49099 2.93434
RightLeg  109.652 17.0857 -3.5892
RightFoot  -25.1392 0.273001 1.82231
RightToes  5.82077e-011 -3.18055e-015 -2.98177e-016
Spine  50.8395 -2.00943 -1.94184
Spine1  -11.4795 -2.51169 -7.76879
HEad  -24.3855 -14.1133 -0.360475
LeftShoulder1  -3.88251e-019 9.70628e-020 -3.87848e-018
LeftArm  -3.82521 -12.3426 -79.011
LeftForeArm  25.1195 -11.0288 -6.65585
LeftHand  -14.961 -12.5508 82.1279
RightShoulder  2.35072 6.13797 12.7808
RightArm  1.87546 33.0556 57.4212
RightForeArm  2.14684 11.0669 -9.61753
RightHand  -5.58535 5.18121 -56.1398
LeftUpLeg  -43.6938 -6.16843 -9.49734
LeftLeg  106.162 -20.5467 19.6307
LeftFoot  -25.2459 -0.562844 -4.64395
LeftToes  9.37148e-011 4.50685e-012 -4.11107e-011
